<?xml version="1.0" encoding="UTF-8" standalone="no"?>
<svg
   xmlns:dc="http://purl.org/dc/elements/1.1/"
   xmlns:cc="http://creativecommons.org/ns#"
   xmlns:rdf="http://www.w3.org/1999/02/22-rdf-syntax-ns#"
   xmlns:svg="http://www.w3.org/2000/svg"
   xmlns="http://www.w3.org/2000/svg"
   xmlns:sodipodi="http://sodipodi.sourceforge.net/DTD/sodipodi-0.dtd"
   xmlns:inkscape="http://www.inkscape.org/namespaces/inkscape"
   version="1.1"
   viewBox="0 0 67 575"
   stroke-miterlimit="10"
   id="svg2"
   inkscape:version="0.91 r"
   sodipodi:docname="tn.svg"
   width="67"
   height="575"
   style="fill:none;stroke:none;stroke-linecap:square;stroke-miterlimit:10">
  <metadata
     id="metadata19">
    <rdf:RDF>
      <cc:Work
         rdf:about="">
        <dc:format>image/svg+xml</dc:format>
        <dc:type
           rdf:resource="http://purl.org/dc/dcmitype/StillImage" />
        <dc:title></dc:title>
      </cc:Work>
    </rdf:RDF>
  </metadata>
  <defs
     id="defs17">
    <clipPath
       id="p.0-9">
      <path
         style="clip-rule:nonzero"
         inkscape:connector-curvature="0"
         d="M 0,0 800,0 800,600 0,600 0,0 Z"
         id="path5-6" />
    </clipPath>
  </defs>
  <sodipodi:namedview
     pagecolor="#ffffff"
     bordercolor="#666666"
     borderopacity="1"
     objecttolerance="10"
     gridtolerance="10"
     guidetolerance="10"
     inkscape:pageopacity="0"
     inkscape:pageshadow="2"
     inkscape:window-width="1600"
     inkscape:window-height="827"
     id="namedview15"
     showgrid="false"
     inkscape:zoom="0.55625733"
     inkscape:cx="-27.759283"
     inkscape:cy="315.07035"
     inkscape:window-x="0"
     inkscape:window-y="27"
     inkscape:window-maximized="1"
     inkscape:current-layer="layer2" />
  <clipPath
     id="p.0">
    <path
       d="M 0,0 800,0 800,600 0,600 0,0 Z"
       id="path5"
       inkscape:connector-curvature="0"
       style="clip-rule:nonzero" />
  </clipPath>
  <g
     inkscape:groupmode="layer"
     id="layer1"
     inkscape:label="Layer 1"
     style="display:none"
     sodipodi:insensitive="true"
     transform="translate(0,-25)">
    <g
       clip-path="url(#p.0-9)"
       id="g7"
       transform="translate(-28.813559,0)">
      <path
         style="fill:#000000;fill-opacity:0;fill-rule:nonzero"
         inkscape:connector-curvature="0"
         d="m 0,0 800,0 0,600 -800,0 z"
         id="path9" />
      <path
         style="fill:#999999;fill-rule:nonzero"
         inkscape:connector-curvature="0"
         d="m 388.3937,576 0,-576 67.21259,0 0,576 z"
         id="path11" />
      <path
         style="fill:#000000;fill-rule:nonzero"
         inkscape:connector-curvature="0"
         d="m 430.54,348.1543 -17.04687,0 0,-3.46875 14.15625,0 0,-8.625 2.89062,0 0,12.09375 z m -8.48437,-13.86328 q -2.625,0 -4.40625,-0.78125 -1.3125,-0.59375 -2.35938,-1.59375 -1.04687,-1.01563 -1.54687,-2.23438 -0.67188,-1.59375 -0.67188,-3.70312 0,-3.79688 2.35938,-6.0625 2.34375,-2.28125 6.54687,-2.28125 4.15625,0 6.51563,2.26562 2.34375,2.25 2.34375,6.03125 0,3.84375 -2.34375,6.10938 -2.34375,2.25 -6.4375,2.25 z m -0.125,-3.57813 q 2.92187,0 4.4375,-1.34375 1.5,-1.34375 1.5,-3.42187 0,-2.07813 -1.48438,-3.40625 -1.5,-1.32813 -4.5,-1.32813 -2.95312,0 -4.40625,1.29688 -1.45312,1.29687 -1.45312,3.4375 0,2.14062 1.48437,3.45312 1.46875,1.3125 4.42188,1.3125 z m 2.29687,-23.77734 -2.90625,0 0,-7.48437 6.84375,0 q 1.0625,1.09375 1.875,3.17187 0.79688,2.0625 0.79688,4.17188 0,2.70312 -1.125,4.70312 -1.14063,2 -3.23438,3.01563 -2.10937,1 -4.59375,1 -2.67187,0 -4.75,-1.125 -2.09375,-1.125 -3.21875,-3.28125 -0.84375,-1.65625 -0.84375,-4.125 0,-3.1875 1.34375,-4.98438 1.32813,-1.8125 3.70313,-2.32812 l 0.64062,3.45312 q -1.26562,0.35938 -2,1.35938 -0.73437,1 -0.73437,2.5 0,2.28125 1.45312,3.625 1.4375,1.34375 4.26563,1.34375 3.0625,0 4.59375,-1.35938 1.53125,-1.35937 1.53125,-3.5625 0,-1.09375 -0.42188,-2.1875 -0.4375,-1.09375 -1.04687,-1.89062 l -2.17188,0 0,3.98437 z m -10.875,-10.69922 0,-6.85937 q 0,-2.04688 0.17188,-3.04688 0.17187,-1 0.71875,-1.78125 0.53125,-0.79687 1.4375,-1.32812 0.89062,-0.53125 2,-0.53125 1.20312,0 2.21875,0.65625 1,0.65625 1.51562,1.76562 0.45313,-1.57812 1.5625,-2.42187 1.09375,-0.84375 2.57813,-0.84375 1.17187,0 2.28125,0.54687 1.10937,0.54688 1.78125,1.5 0.65625,0.9375 0.79687,2.3125 0.0937,0.875 0.125,4.1875 l 0,5.84375 -17.1875,0 z m 2.85938,-3.46875 3.98437,0 0,-2.26562 q 0,-2.03125 -0.0625,-2.51563 -0.10937,-0.89062 -0.60937,-1.40625 -0.51563,-0.51562 -1.34375,-0.51562 -0.79688,0 -1.29688,0.45312 -0.5,0.4375 -0.60937,1.29688 -0.0625,0.51562 -0.0625,2.96875 l 0,1.98437 z m 6.84375,0 4.59375,0 0,-3.20312 q 0,-1.875 -0.10938,-2.375 -0.14062,-0.78125 -0.6875,-1.26563 -0.54687,-0.48437 -1.45312,-0.48437 -0.78125,0 -1.3125,0.375 -0.54688,0.375 -0.78125,1.09375 -0.25,0.70312 -0.25,3.0625 l 0,2.79687 z m -1,-13.14453 q -2.625,0 -4.40625,-0.78125 -1.3125,-0.59375 -2.35938,-1.59375 -1.04687,-1.01562 -1.54687,-2.23437 -0.67188,-1.59375 -0.67188,-3.70313 0,-3.79687 2.35938,-6.0625 2.34375,-2.28125 6.54687,-2.28125 4.15625,0 6.51563,2.26563 2.34375,2.25 2.34375,6.03125 0,3.84375 -2.34375,6.10937 -2.34375,2.25 -6.4375,2.25 z m -0.125,-3.57812 q 2.92187,0 4.4375,-1.34375 1.5,-1.34375 1.5,-3.42188 0,-2.07812 -1.48438,-3.40625 -1.5,-1.32812 -4.5,-1.32812 -2.95312,0 -4.40625,1.29687 -1.45312,1.29688 -1.45312,3.4375 0,2.14063 1.48437,3.45313 1.46875,1.3125 4.42188,1.3125 z m 0.125,-15.08985 q -2.625,0 -4.40625,-0.78125 -1.3125,-0.59375 -2.35938,-1.59375 -1.04687,-1.01562 -1.54687,-2.23437 -0.67188,-1.59375 -0.67188,-3.70313 0,-3.79687 2.35938,-6.0625 2.34375,-2.28125 6.54687,-2.28125 4.15625,0 6.51563,2.26563 2.34375,2.25 2.34375,6.03125 0,3.84375 -2.34375,6.10937 -2.34375,2.25 -6.4375,2.25 z m -0.125,-3.57812 q 2.92187,0 4.4375,-1.34375 1.5,-1.34375 1.5,-3.42188 0,-2.07812 -1.48438,-3.40625 -1.5,-1.32812 -4.5,-1.32812 -2.95312,0 -4.40625,1.29687 -1.45312,1.29688 -1.45312,3.4375 0,2.14063 1.48437,3.45313 1.46875,1.3125 4.42188,1.3125 z m 8.60937,-15.83985 -17.1875,0 0,-3.46875 7.64063,0 -7.64063,-7 0,-4.67187 6.70313,6.46875 10.48437,-6.8125 0,4.48437 -8.0625,4.71875 2.875,2.8125 5.1875,0 0,3.46875 z"
         id="path13" />
    </g>
  </g>
  <g
     inkscape:groupmode="layer"
     id="layer2"
     inkscape:label="Layer 2"
     style="display:inline"
     transform="translate(0,-25)">
    <rect
       style="fill:#b3b3b3;fill-opacity:1;stroke:none;stroke-width:1.17151511;stroke-linecap:butt;stroke-linejoin:round;stroke-miterlimit:4;stroke-dasharray:none;stroke-dashoffset:0;stroke-opacity:1"
       id="rect4179"
       width="67"
       height="575"
       x="0"
       y="25" />
    <text
       xml:space="preserve"
       style="font-style:normal;font-variant:normal;font-weight:500;font-stretch:normal;font-size:45px;line-height:125%;font-family:Ubuntu;-inkscape-font-specification:'Ubuntu, Medium';text-align:start;letter-spacing:0px;word-spacing:0px;writing-mode:lr-tb;text-anchor:start;fill:#000000;fill-opacity:1;stroke:none;stroke-width:1px;stroke-linecap:butt;stroke-linejoin:miter;stroke-opacity:1"
       x="-498.75253"
       y="49.115002"
       id="text4181"
       sodipodi:linespacing="125%"
       transform="matrix(0,-1,1,0,0,0)"><tspan
         sodipodi:role="line"
         id="tspan4183"
         x="-498.75253"
         y="49.115002">TECHNICAL NOTE</tspan></text>
  </g>
</svg>
